<svg xmlns="http://www.w3.org/2000/svg" viewBox="0 0 512 512">
  <defs>
    <linearGradient id="bg" x1="0" y1="0" x2="1" y2="1">
      <stop offset="0%" stop-color="#2563eb"/>
      <stop offset="100%" stop-color="#7c3aed"/>
    </linearGradient>
  </defs>
  <!-- Background -->
  <rect width="512" height="512" rx="120" fill="url(#bg)"/>
  <!-- Paper shape -->
  <rect x="128" y="80" width="256" height="352" rx="24" fill="#fff" opacity="0.95"/>
  <!-- Text lines -->
  <rect x="160" y="120" width="140" height="16" rx="8" fill="#1a1a2e"/>
  <rect x="160" y="156" width="190" height="12" rx="6" fill="#6b7280"/>
  <rect x="160" y="188" width="170" height="12" rx="6" fill="#9ca3af"/>
  <rect x="160" y="220" width="180" height="12" rx="6" fill="#9ca3af"/>
  <rect x="160" y="252" width="150" height="12" rx="6" fill="#d1d5db"/>
  <!-- Code block -->
  <rect x="160" y="288" width="192" height="56" rx="10" fill="#f3f4f6"/>
  <rect x="176" y="304" width="100" height="8" rx="4" fill="#2563eb"/>
  <rect x="176" y="322" width="140" height="8" rx="4" fill="#6b7280"/>
  <!-- Bottom lines -->
  <rect x="160" y="368" width="180" height="12" rx="6" fill="#9ca3af"/>
  <rect x="160" y="396" width="120" height="12" rx="6" fill="#d1d5db"/>
  <!-- Folding corner -->
  <path d="M384 80 L384 140 Q384 160 364 160 L304 160 Q284 160 284 180 L284 220 Q284 240 304 240 L344 240 Q364 240 384 220 L384 200" fill="none" stroke="#e5e7eb" stroke-width="2"/>
  <!-- "MD" badge -->
  <rect x="200" y="430" width="112" height="44" rx="22" fill="#2563eb"/>
  <text x="256" y="460" text-anchor="middle" font-family="system-ui,sans-serif" font-weight="700" font-size="28" fill="#fff">MD</text>
</svg>
